# xmcd CD database file
#
# Track frame offsets:
#	150
#	10945
#	23284
#	32228
#	42116
#	54344
#	66477
#	80003
#	96887
#	107627
#	120095
#	131290
#	144520
#	158318
#	168681
#	179944
#	189291
#	198792
#	210933
#	222895
#	236743
#
# Disc length: 3280 seconds
#
# Revision: 1
# Processed by: cddbd v1.5.2PL0 Copyright (c) Steve Scherf et al.
# Submitted via: CDex 1.70beta2
#
DISCID=110cce15
DTITLE=Merle Haggard and the Strangers - A Working Man Can't Get Nowhere Today
DYEAR=1977
DGENRE=Country
TTITLE0=Old Man from the Mountain
TTITLE1=Things Aren't Funny Anymore
TTITLE2=White Man Singin' the Blues
TTITLE3=Travelin'
TTITLE4=Girl who Made me Laugh
TTITLE5=Honky Tonk Night Time Man
TTITLE6=Holding Things Together
TTITLE7=(The Seashores of) Old Mexico
TTITLE8=Don't Give Up on Me
TTITLE9=King Without a Queen
TTITLE10=It Don't Bother Me
TTITLE11=Working Man Can't Get Nowhere Today
TTITLE12=Making Believe
TTITLE13=Blues Stay Away from Me
TTITLE14=Got a Letter from my Kid Today
TTITLE15=When My Last Song is Sung
TTITLE16=Moanin' the Blues
TTITLE17=Goodbye Lefty
TTITLE18=Blues for Dixie
TTITLE19=Running Kind
TTITLE20=I'm a White Boy
EXTD=YEAR: 1977
EXTT0=
EXTT1=
EXTT2=
EXTT3=
EXTT4=
EXTT5=
EXTT6=
EXTT7=
EXTT8=
EXTT9=
EXTT10=
EXTT11=
EXTT12=
EXTT13=
EXTT14=
EXTT15=
EXTT16=
EXTT17=
EXTT18=
EXTT19=
EXTT20=
PLAYORDER=
